HIERARCHY
ROOT joint_Root
{
	OFFSET 0.0 0.0 0.0
	CHANNELS 6 Xposition Yposition Zposition Zrotation Xrotation Yrotation 
	JOINT Hips
	{
		OFFSET -0.726466 93.3139 -2.00062
		CHANNELS 6 Xposition Yposition Zposition Zrotation Xrotation Yrotation 
		JOINT Spine
		{
			OFFSET 15.7357 0.0 0.0
			CHANNELS 6 Xposition Yposition Zposition Zrotation Xrotation Yrotation 
			JOINT Chest
			{
				OFFSET 8.98455 -0.406207 0.0
				CHANNELS 6 Xposition Yposition Zposition Zrotation Xrotation Yrotation 
				JOINT Neck
				{
					OFFSET 16.3773 0.0 0.0
					CHANNELS 6 Xposition Yposition Zposition Zrotation Xrotation Yrotation 
					JOINT Head
					{
						OFFSET 6.45672 0.0 0.0
						CHANNELS 6 Xposition Yposition Zposition Zrotation Xrotation Yrotation 
						End Site
						{
							OFFSET 0.0 0.0 0.0
						}
					}
				}
				JOINT Shoulder_L
				{
					OFFSET 12.9942 -0.242716 4.98039
					CHANNELS 6 Xposition Yposition Zposition Zrotation Xrotation Yrotation 
					JOINT UpperArm_L
					{
						OFFSET 5.34809 0.0 0.0
						CHANNELS 6 Xposition Yposition Zposition Zrotation Xrotation Yrotation 
						JOINT LowerArm_L
						{
							OFFSET 24.3286 1.87007e-05 0.0
							CHANNELS 6 Xposition Yposition Zposition Zrotation Xrotation Yrotation 
							JOINT Hand_L
							{
								OFFSET 22.2916 0.0 0.0
								CHANNELS 6 Xposition Yposition Zposition Zrotation Xrotation Yrotation 
								End Site
								{
									OFFSET 0.0 0.0 0.0
								}
							}
						}
					}
				}
				JOINT Shoulder_R
				{
					OFFSET 12.9945 -0.242716 -4.98039
					CHANNELS 6 Xposition Yposition Zposition Zrotation Xrotation Yrotation 
					JOINT UpperArm_R
					{
						OFFSET -5.34813 0.0 0.0
						CHANNELS 6 Xposition Yposition Zposition Zrotation Xrotation Yrotation 
						JOINT LowerArm_R
						{
							OFFSET -24.3289 0.000322201 0.0
							CHANNELS 6 Xposition Yposition Zposition Zrotation Xrotation Yrotation 
							JOINT Hand_R
							{
								OFFSET -22.2915 -0.000108084 0.0
								CHANNELS 6 Xposition Yposition Zposition Zrotation Xrotation Yrotation 
								End Site
								{
									OFFSET 0.0 0.0 0.0
								}
							}
						}
					}
				}
			}
		}
		JOINT UpperLeg_L
		{
			OFFSET -2.19248 -6.46944 0.0
			CHANNELS 6 Xposition Yposition Zposition Zrotation Xrotation Yrotation 
			JOINT LowerLeg_L
			{
				OFFSET 39.0811 0.0 -1.23785e-05
				CHANNELS 6 Xposition Yposition Zposition Zrotation Xrotation Yrotation 
				JOINT Foot_L
				{
					OFFSET 40.9854 0.0 -1.26872e-05
					CHANNELS 6 Xposition Yposition Zposition Zrotation Xrotation Yrotation 
					JOINT Toes_L
					{
						OFFSET 11.7543 0.0 0.0
						CHANNELS 6 Xposition Yposition Zposition Zrotation Xrotation Yrotation 
						End Site
						{
							OFFSET 0.0 0.0 0.0
						}
					}
				}
			}
		}
		JOINT UpperLeg_R
		{
			OFFSET -2.19251 6.46944 0.0
			CHANNELS 6 Xposition Yposition Zposition Zrotation Xrotation Yrotation 
			JOINT LowerLeg_R
			{
				OFFSET -39.0811 -0.00228153 -0.0401928
				CHANNELS 6 Xposition Yposition Zposition Zrotation Xrotation Yrotation 
				JOINT Foot_R
				{
					OFFSET -40.9854 0.0 0.0
					CHANNELS 6 Xposition Yposition Zposition Zrotation Xrotation Yrotation 
					JOINT Toes_R
					{
						OFFSET -11.7543 0.0 0.0
						CHANNELS 6 Xposition Yposition Zposition Zrotation Xrotation Yrotation 
						End Site
						{
							OFFSET 0.0 0.0 0.0
						}
					}
				}
			}
		}
	}
}
MOTION
Frames:	7
Frame Time:	0.0333333
0.000000 0.000000 0.000000 0.000000 0.000000 -0.000000 -0.634047 92.928700 -0.933204 89.044400 -2.510650 2.256340 15.735700 0.000005 -0.000001 94.503900 86.805800 -94.545300 8.984550 -0.406207 -0.000000 -1.397270 0.504859 -0.076618 16.377300 -0.000001 -0.000001 3.082240 -2.554100 3.440650 6.456720 -0.000001 -0.000000 8.346490 -1.572300 -3.648690 12.994200 -0.242716 4.980390 -90.596200 1.925300 -72.791300 5.348090 -0.000007 -0.000001 -66.547500 36.623500 -14.738000 24.328600 0.000019 0.000005 5.525130 13.826500 -22.035400 22.291600 -0.000001 0.000005 0.480424 5.474090 -5.520920 12.994500 -0.242716 -4.980390 87.593600 8.089520 -73.372700 -5.348130 -0.000001 -0.000004 -63.156100 38.137300 -13.759000 -24.328900 0.000322 -0.000009 5.400680 14.008000 -21.336900 -22.291500 -0.000108 -0.000004 2.722000 5.333300 -0.877718 -2.192480 -6.469440 -0.000000 -176.579000 -8.223040 -2.201940 39.081100 -0.000007 -0.000012 -0.059020 0.188280 17.404600 40.985400 -0.000006 -0.000013 -0.327687 4.171400 -63.075500 11.754300 -0.000000 0.000003 -0.000001 -0.000021 -16.578300 -2.192510 6.469440 -0.000001 179.071000 11.264900 179.872000 -39.081100 -0.002282 -0.040193 -0.056232 0.226936 14.706600 -40.985400 0.000008 0.000006 1.032100 7.294610 -62.573400 -11.754300 -0.000006 -0.000006 -0.005827 -0.069257 -19.391600
0.000000 0.000000 0.000000 0.000000 0.000000 -0.000000 -0.642561 92.917100 -1.000030 89.030300 -2.441020 2.350950 15.735700 0.000005 -0.000001 94.154000 86.783900 -94.193300 8.984550 -0.406207 -0.000000 -1.350620 0.468958 -0.073010 16.377300 -0.000001 -0.000001 3.098320 -2.548010 3.443330 6.456720 -0.000001 -0.000000 8.359870 -1.527150 -3.565770 12.994200 -0.242716 4.980390 -90.661400 2.135910 -72.790800 5.348090 -0.000007 -0.000001 -64.294700 35.574300 -17.121900 24.328600 0.000019 0.000005 6.444710 14.959900 -23.632500 22.291600 -0.000001 0.000005 -1.793200 5.464310 -5.158300 12.994500 -0.242716 -4.980390 87.567600 8.144410 -73.309000 -5.348130 -0.000001 -0.000004 -61.512200 36.750100 -15.304900 -24.328900 0.000322 -0.000009 6.254200 14.210000 -24.061200 -22.291500 -0.000108 -0.000004 0.665312 5.324970 -0.638731 -2.192480 -6.469440 -0.000000 -176.540000 -8.207750 -2.252130 39.081100 -0.000007 -0.000012 -0.060709 0.191652 17.576400 40.985400 -0.000006 -0.000013 -0.320533 4.242230 -63.103400 11.754300 -0.000000 0.000003 -0.000002 -0.000025 -16.578500 -2.192510 6.469440 -0.000001 179.085000 11.274800 179.851000 -39.081100 -0.002282 -0.040193 -0.057237 0.228184 14.865400 -40.985400 0.000008 0.000006 1.045740 7.240750 -62.616200 -11.754300 -0.000006 -0.000006 -0.005473 -0.065973 -19.257700
0.000000 0.000000 0.000000 0.000000 0.000000 -0.000000 -0.662828 92.919900 -1.098570 89.050200 -2.311670 2.581970 15.735700 0.000005 -0.000001 93.664600 86.732400 -93.722900 8.984550 -0.406207 -0.000000 -1.243900 0.422209 -0.111965 16.377300 -0.000001 -0.000001 3.295530 -2.616260 3.499040 6.456720 -0.000001 -0.000000 8.410480 -1.549830 -3.554820 12.994200 -0.242716 4.980390 -90.694400 2.252660 -72.862600 5.348090 -0.000007 -0.000001 -61.458000 33.064500 -20.402600 24.328600 0.000019 0.000005 7.326360 15.123900 -26.233900 22.291600 -0.000001 0.000005 -2.561120 5.465550 -5.204590 12.994500 -0.242716 -4.980390 87.516200 8.220590 -73.123500 -5.348130 -0.000001 -0.000004 -59.047700 34.453100 -17.854100 -24.328900 0.000322 -0.000009 7.220480 13.842500 -27.907100 -22.291500 -0.000108 -0.000004 0.048774 5.319470 -0.480530 -2.192480 -6.469440 -0.000000 -176.524000 -8.162450 -2.109320 39.081100 -0.000007 -0.000012 -0.059531 0.187741 17.593400 40.985400 -0.000006 -0.000013 -0.313897 4.321330 -63.036100 11.754300 -0.000000 0.000003 -0.000001 -0.000020 -16.578300 -2.192510 6.469440 -0.000001 179.054000 11.314100 179.993000 -39.081100 -0.002282 -0.040193 -0.057353 0.227563 14.931500 -40.985400 0.000008 0.000006 1.057710 7.142950 -62.593300 -11.754300 -0.000006 -0.000006 -0.005717 -0.068243 -19.350300
0.000000 0.000000 0.000000 0.000000 0.000000 -0.000000 -0.665706 92.912200 -1.228950 89.080100 -2.249890 2.784650 15.735700 0.000005 -0.000001 93.241500 86.723200 -93.305100 8.984550 -0.406207 -0.000000 -1.222710 0.375491 -0.123159 16.377300 -0.000001 -0.000001 3.570860 -2.625240 3.480760 6.456720 -0.000001 -0.000000 8.720680 -1.605550 -3.527160 12.994200 -0.242716 4.980390 -90.689900 2.253950 -72.977700 5.348090 -0.000007 -0.000001 -58.697700 29.031500 -24.014200 24.328600 0.000019 0.000005 7.538870 13.381500 -29.765900 22.291600 -0.000001 0.000005 -1.309740 5.475990 -5.590810 12.994500 -0.242716 -4.980390 87.499100 8.172890 -72.921200 -5.348130 -0.000001 -0.000004 -56.034000 31.259700 -21.470300 -24.328900 0.000322 -0.000009 7.885700 12.592500 -32.433500 -22.291500 -0.000108 -0.000004 1.137400 5.322090 -0.557880 -2.192480 -6.469440 -0.000000 -176.527000 -8.163340 -2.063240 39.081100 -0.000007 -0.000012 -0.060080 0.188093 17.714300 40.985400 -0.000006 -0.000013 -0.297661 4.395780 -63.003000 11.754300 -0.000000 0.000003 -0.000002 -0.000034 -16.578800 -2.192510 6.469440 -0.000001 179.005000 11.333600 -179.996000 -39.081100 -0.002282 -0.040193 -0.058133 0.226990 15.151000 -40.985400 0.000008 0.000006 1.075520 7.102910 -62.621400 -11.754300 -0.000006 -0.000006 -0.005500 -0.066223 -19.267900
0.000000 0.000000 0.000000 0.000000 0.000000 -0.000000 -0.668024 92.907500 -1.356470 89.053800 -2.267780 3.076240 15.735700 0.000005 -0.000001 92.924400 86.709300 -92.968400 8.984550 -0.406207 -0.000000 -1.193150 0.339137 -0.084305 16.377300 -0.000001 -0.000001 3.913330 -2.632690 3.510350 6.456720 -0.000001 -0.000000 9.123800 -1.565200 -3.641510 12.994200 -0.242716 4.980390 -90.662500 2.200580 -73.242300 5.348090 -0.000007 -0.000001 -56.211700 23.692700 -27.926100 24.328600 0.000019 0.000005 7.614990 11.385100 -34.110300 22.291600 -0.000001 0.000005 0.075973 5.486710 -6.000350 12.994500 -0.242716 -4.980390 87.539800 7.969080 -72.781800 -5.348130 -0.000001 -0.000004 -53.063300 26.980300 -25.868600 -24.328900 0.000322 -0.000009 8.716920 11.513200 -37.535700 -22.291500 -0.000108 -0.000004 2.533730 5.320250 -0.500920 -2.192480 -6.469440 -0.000000 -176.452000 -8.216380 -1.927540 39.081100 -0.000007 -0.000012 -0.061133 0.189766 17.856200 40.985400 -0.000006 -0.000013 -0.294713 4.424190 -62.982600 11.754300 -0.000000 0.000003 -0.000003 -0.000038 -16.579000 -2.192510 6.469440 -0.000001 178.999000 11.333800 -179.847000 -39.081100 -0.002282 -0.040193 -0.057687 0.223485 15.271000 -40.985400 0.000008 0.000006 1.099470 7.108260 -62.596900 -11.754300 -0.000006 -0.000006 -0.005378 -0.065081 -19.221400
0.000000 0.000000 0.000000 0.000000 0.000000 -0.000000 -0.651299 92.905400 -1.500920 89.049200 -2.341370 3.265200 15.735700 0.000005 -0.000001 93.087100 86.740000 -93.124500 8.984550 -0.406207 -0.000000 -1.255320 0.353994 -0.070852 16.377300 -0.000001 -0.000001 4.194470 -2.595850 3.533650 6.456720 -0.000001 -0.000000 9.591810 -1.572970 -3.624330 12.994200 -0.242716 4.980390 -90.564100 1.905220 -73.505400 5.348090 -0.000007 -0.000001 -54.288600 17.759900 -32.347800 24.328600 0.000019 0.000005 8.632860 10.824600 -38.950100 22.291600 -0.000001 0.000005 1.923630 5.497800 -6.443180 12.994500 -0.242716 -4.980390 87.601100 7.727310 -72.694600 -5.348130 -0.000001 -0.000004 -50.387700 21.764100 -30.744500 -24.328900 0.000322 -0.000009 10.314700 11.156200 -43.246700 -22.291500 -0.000108 -0.000004 3.448350 5.308120 -0.156693 -2.192480 -6.469440 -0.000000 -176.438000 -8.315280 -1.880790 39.081100 -0.000007 -0.000012 -0.060193 0.185653 17.963600 40.985400 -0.000006 -0.000013 -0.269135 4.441190 -62.943800 11.754300 -0.000000 0.000003 -0.000002 -0.000027 -16.578500 -2.192510 6.469440 -0.000001 178.983000 11.241000 -179.835000 -39.081100 -0.002282 -0.040193 -0.057924 0.222245 15.409000 -40.985400 0.000008 0.000006 1.105700 7.106900 -62.558300 -11.754300 -0.000006 -0.000006 -0.005628 -0.067414 -19.316500
0.000000 0.000000 0.000000 0.000000 0.000000 -0.000000 -0.627524 92.903600 -1.613960 89.041300 -2.453040 3.453180 15.735700 0.000005 -0.000001 93.080500 86.773500 -93.111400 8.984550 -0.406207 -0.000000 -1.322310 0.349143 -0.057752 16.377300 -0.000001 -0.000001 4.426480 -2.560160 3.576870 6.456720 -0.000001 -0.000000 9.908780 -1.535810 -3.643280 12.994200 -0.242716 4.980390 -90.420300 1.432360 -73.646900 5.348090 -0.000007 -0.000001 -52.773400 11.717500 -37.058600 24.328600 0.000019 0.000005 10.063500 10.479800 -44.294700 22.291600 -0.000001 0.000005 3.317430 5.504070 -6.696810 12.994500 -0.242716 -4.980390 87.725000 7.366720 -72.784900 -5.348130 -0.000001 -0.000004 -48.066800 16.116500 -35.896800 -24.328900 0.000322 -0.000009 12.384600 10.918600 -49.219400 -22.291500 -0.000108 -0.000004 4.873290 5.301520 0.029404 -2.192480 -6.469440 -0.000000 -176.431000 -8.300090 -1.795950 39.081100 -0.000007 -0.000012 -0.060292 0.185055 18.045900 40.985400 -0.000006 -0.000013 -0.261710 4.354990 -62.920700 11.754300 -0.000000 0.000003 -0.000001 -0.000022 -16.578300 -2.192510 6.469440 -0.000001 178.946000 11.217000 -179.783000 -39.081100 -0.002282 -0.040193 -0.058166 0.221561 15.512300 -40.985400 0.000008 0.000006 1.114050 7.210040 -62.522600 -11.754300 -0.000006 -0.000006 -0.005678 -0.067878 -19.335400
